<svg width="21" height="21" viewBox="0 0 21 21" fill="none" xmlns="http://www.w3.org/2000/svg">
<path d="M10.5115 3.10677C9.44079 3.10677 8.38057 3.29799 7.39137 3.66952C6.40217 4.04105 5.50336 4.5856 4.74626 5.2721C3.21722 6.65854 2.35822 8.53895 2.35822 10.4997C2.35109 12.2068 3.00297 13.8624 4.20086 15.1794L2.5702 16.658C2.45707 16.7619 2.38043 16.8939 2.34996 17.0374C2.31949 17.1808 2.33655 17.3292 2.39898 17.4638C2.4667 17.5968 2.57648 17.7086 2.71439 17.7849C2.8523 17.8613 3.01211 17.8987 3.17354 17.8926H10.5115C12.6739 17.8926 14.7477 17.1137 16.2767 15.7273C17.8058 14.3408 18.6648 12.4604 18.6648 10.4997C18.6648 8.53895 17.8058 6.65854 16.2767 5.2721C14.7477 3.88566 12.6739 3.10677 10.5115 3.10677V3.10677ZM10.5115 16.414H5.13848L5.89674 15.7265C6.04859 15.5879 6.13383 15.4006 6.13383 15.2053C6.13383 15.01 6.04859 14.8226 5.89674 14.6841C4.82914 13.7171 4.16431 12.4444 4.01553 11.0828C3.86674 9.72124 4.24321 8.355 5.08078 7.21687C5.91835 6.07874 7.16522 5.23915 8.60894 4.84112C10.0527 4.4431 11.6039 4.51127 12.9984 5.03403C14.3929 5.55679 15.5444 6.50179 16.2566 7.70803C16.9689 8.91427 17.1979 10.3071 16.9046 11.6493C16.6113 12.9914 15.8138 14.1999 14.6481 15.0687C13.4824 15.9375 12.0205 16.4129 10.5115 16.414V16.414Z" fill="#323232"/>
</svg>
