<svg width="23" height="23" viewBox="0 0 23 23" fill="none" xmlns="http://www.w3.org/2000/svg">
<path d="M11.7125 1.91667C8.08906 1.91528 4.77493 3.95837 3.14844 7.19622L6.35015 9.67917C7.10513 7.34835 9.26261 5.75871 11.7125 5.72823V1.91667Z" fill="#F03800"/>
<path d="M11.7125 5.72823C13.0746 5.70531 14.3909 6.22025 15.3759 7.16137L18.1246 4.41269C16.39 2.78353 14.092 1.88903 11.7125 1.91667V5.72823Z" fill="#FF641A"/>
<path d="M3.14847 7.19621C1.78938 9.90445 1.78938 13.0955 3.14847 15.8038L6.35014 13.3208C5.94944 12.14 5.94944 10.86 6.35014 9.67917L3.14847 7.19621Z" fill="#FFDA2D"/>
<path d="M14.958 16.357C12.2708 18.0819 8.69418 17.3017 6.96937 14.6145C6.71014 14.2107 6.5022 13.7761 6.35035 13.3208L3.14868 15.8038C4.77515 19.0416 8.08929 21.0847 11.7127 21.0833C14.0456 21.1466 16.3144 20.316 18.0551 18.7616L14.958 16.357Z" fill="#59C36A"/>
<path d="M20.7384 9.75758H11.7126V13.4646H16.8702C16.6546 14.6494 15.9637 15.6945 14.9579 16.357C14.9549 16.359 14.9517 16.3604 14.9487 16.3624C14.9517 16.3605 14.9549 16.359 14.9579 16.3571L18.055 18.7616L18.055 18.7615C19.9624 16.9245 21.0009 14.3645 20.9126 11.7178C20.9132 11.0605 20.8548 10.4045 20.7384 9.75758Z" fill="#4175DF"/>
</svg>
