<svg width="284" height="284" viewBox="0 0 284 284" fill="none" xmlns="http://www.w3.org/2000/svg">
<path d="M119.075 14.7147C111.626 15.9123 100.602 18.9905 95.74 21.2268C94.8196 21.6722 93.7395 22.0204 93.3238 22.0355C92.908 22.0506 91.7259 22.454 90.6514 22.9564C89.577 23.4589 88.0423 24.184 87.1719 24.5761C81.9499 26.9285 70.2238 33.5848 67.6965 35.6333C66.8374 36.3338 65.9746 36.9316 65.7667 36.9391C65.299 36.9561 55.4942 44.9328 52.8779 47.3964C40.808 58.9052 29.1993 74.5162 24.1041 86.0803C23.479 87.4932 22.7036 89.066 22.4068 89.4887C22.1099 89.9114 21.4848 91.3243 21.0119 92.6287C20.539 93.9331 19.8731 95.6564 19.5412 96.5438C18.9198 98.0595 18.0742 100.562 16.7593 104.471C14.7009 110.827 12.6544 120.376 12.0084 126.938C11.8678 128.797 11.5217 132.156 11.2902 134.379C11.0218 137.014 11.0278 138.61 11.4047 138.957C11.8353 139.353 14.2142 137.516 18.8418 133.126C19.1424 132.806 20.4524 131.625 21.8144 130.443C23.9816 128.511 33.5041 119.927 37.4341 116.385C38.2914 115.633 40.2063 113.916 41.7167 112.523C43.2289 111.18 46.1012 108.605 48.0143 106.836C49.9793 105.065 52.7013 102.649 54.0633 101.467C55.4253 100.285 56.9356 98.8914 57.4886 98.3564C59.8951 95.8489 59.7945 94.5139 61.6472 145.471L63.3765 193.035L64.86 195.195C71.5106 204.942 82.818 215.394 93.2928 221.553C99.6727 225.285 110.984 230.126 116.02 231.23C116.912 231.455 118.175 231.821 118.913 232.103C121.601 233.035 127.672 233.998 129.693 233.771L131.714 233.543L130.763 203.096L129.759 172.6L130.945 172.3C133.057 171.708 187.066 170.208 187.243 170.768C187.356 171.021 186.304 172.141 184.885 173.171C182.25 175.12 174.959 180.688 167.214 186.634L162.658 190.146L164.083 229.328C164.941 252.93 165.721 268.657 165.988 268.853C166.254 268.998 167.497 268.85 168.735 268.547C169.973 268.245 172.809 267.524 175.076 266.926C177.346 266.38 179.922 265.669 180.744 265.382C181.616 265.041 183.108 264.575 184.088 264.333C186.768 263.618 191.179 261.861 197.63 258.95C220.665 248.484 241.02 230.135 254.963 207.179C256.435 204.706 257.952 202.076 258.34 201.29C261.721 194.113 262.78 191.757 264.021 188.675C264.835 186.74 265.499 184.965 265.49 184.708C265.481 184.451 265.813 183.564 266.147 182.728C266.534 181.941 267.465 178.921 268.194 176.063C268.922 173.204 269.883 169.565 270.293 167.954C270.702 166.343 270.999 164.479 270.971 163.708C270.945 162.988 271.16 161.744 271.391 160.964C271.675 160.181 272.038 157.284 272.253 154.599C272.413 151.864 272.648 148.303 272.798 146.702C272.935 144.74 272.794 143.716 272.43 143.729C272.014 143.744 260.621 152.396 258.405 154.433C258.103 154.702 256.635 155.836 255.115 156.973C253.596 158.109 252.23 159.189 252.08 159.349C251.929 159.509 250.968 160.264 249.955 161.022C248.179 162.271 246.079 166.054 246.148 167.957C246.162 168.317 245.607 170.242 244.952 172.274C244.296 174.254 243.597 176.494 243.415 177.221C243.044 178.47 237.654 190.509 236.484 192.662C234.287 196.655 231.074 201.303 230.649 201.061C230.383 200.916 229.424 180.253 228.356 150.892C226.859 109.704 226.43 100.761 225.767 99.704C225.375 98.9459 224.486 97.3821 223.821 96.2735C223.206 95.1117 222.319 93.5993 221.931 92.944C221.099 91.5326 215.947 84.3572 215.518 84.0123C215.356 83.8637 214.27 82.616 213.129 81.2674C209.805 77.1662 200.393 68.7554 195.862 65.7794C191.758 63.0968 188.136 60.8085 187.025 60.2826C182.258 57.9844 174.33 54.617 173.758 54.6378C173.343 54.6529 172.816 54.4661 172.546 54.2185C172.227 54.0241 170.226 53.376 168.071 52.7851C165.918 52.2455 163.236 51.4677 162.132 51.1474C161.078 50.7738 159.559 50.5201 158.884 50.5447L157.585 50.5919L158.781 83.5007L159.978 116.41L158.851 116.914C157.929 117.308 105.706 119.309 102.993 119.099C102.21 119.025 101.998 117.488 102.777 117.459C103.089 117.448 104.766 116.357 106.487 115.008C109.877 112.361 115.7 107.928 117.525 106.626C118.134 106.192 120.513 104.355 122.738 102.575L126.835 99.3363L125.293 56.9148L123.75 14.4932L122.189 14.4985C121.356 14.4773 119.955 14.5797 119.075 14.7147Z" fill="#192A51"/>
<path d="M156.659 25.14L157.078 36.6581L159.125 37.15C160.228 37.4189 162.217 37.7585 163.424 38.0235C166.88 38.6187 170.291 39.4214 171.503 39.8408C172.084 40.0771 173.295 40.445 174.137 40.7233C179.496 42.1246 186.839 45.1529 192.89 48.434C197.137 50.751 203.309 54.4912 204.221 55.2304C204.545 55.579 206.901 57.3984 209.418 59.3664C214.343 63.1519 219.19 67.6611 222.614 71.6557C223.807 73.0025 225.057 74.4502 225.434 74.7969C227.481 76.7305 233.813 86.283 236.882 91.9896C237.998 94.06 239.229 96.4352 239.673 97.1914C240.119 97.999 240.514 98.8599 240.525 99.1684C240.535 99.4255 240.882 100.391 241.33 101.25C244.986 108.789 248.682 124.564 249.875 137.341C249.973 138.625 250.219 139.646 250.375 139.64C250.53 139.635 255.236 135.962 260.851 131.536L271.016 123.443L270.965 120.613C270.907 119.019 270.448 116.41 269.974 114.831C269.499 113.201 269.07 111.415 269.047 110.797C269.025 110.18 268.597 108.445 268.072 106.868C267.598 105.289 266.777 102.745 266.253 101.219C265.781 99.6918 265.031 97.6596 264.582 96.7491C264.132 95.8387 263.779 94.7188 263.764 94.3074C263.748 93.8446 263.4 92.879 262.958 92.1742C262.515 91.418 261.614 89.5457 260.934 88.0258C255.437 75.6626 245.114 60.7975 235.73 51.7163C225.969 42.2885 219.862 37.4647 210.762 31.9259C204.802 28.2811 194.474 23.3018 187.987 20.9118C187.142 20.5821 185.507 19.9722 184.399 19.5491C183.291 19.126 181.978 18.8132 181.511 18.8303C180.991 18.8491 180.36 18.6661 180.039 18.4204C179.768 18.1213 178.61 17.7515 177.455 17.4846C176.303 17.269 174.675 16.8648 173.78 16.5884C170.519 15.6257 158.785 13.4779 157.174 13.5365C156.291 13.5686 156.27 14.4447 156.659 25.14Z" fill="#7C6FA9"/>
<path d="M31.9442 144.287C31.2372 144.879 30.1295 145.897 29.4244 146.541C25.7486 149.918 20.2582 154.906 18.2913 156.625C12.1402 162.049 12.7302 161.101 13.1822 164.946C13.9056 170.532 17.0749 181.847 19.816 188.544C22.728 195.646 23.1793 196.608 26.581 202.869C28.8167 207.113 32.0215 212.248 35.2632 216.97C38.3397 221.441 46.642 230.818 51.5968 235.427C60.8046 243.948 64.1757 246.503 75.51 253.402C83.1207 258.068 95.6461 263.379 105.055 265.972C112.047 267.932 113.672 268.285 117.652 268.964C119.799 269.349 122.994 269.902 124.721 270.2C126.449 270.497 129.059 270.711 130.462 270.66L133.06 270.566L132.651 259.305L132.242 248.044L127.789 247.228C115.639 245.095 111.754 244.155 105.483 241.963C102.372 240.84 92.0031 236.172 90.2471 235.103C89.1296 234.422 88.1198 233.841 88.0159 233.845C87.7561 233.855 78.5935 228.009 78.1609 227.561C77.9994 227.413 76.3361 226.032 74.4093 224.557C70.0172 221.113 68.0252 219.28 63.6421 214.651C60.2355 211.119 53.8675 203.422 53.8507 202.959C53.8451 202.805 53.1822 201.747 52.3579 200.542C49.9442 197.128 49.6675 196.675 46.7114 191.222C45.1498 188.344 43.8592 185.765 43.848 185.456C43.8368 185.148 43.4932 184.285 43.0513 183.58C41.1035 180.098 37.8733 169.969 36.8287 164.138C36.5016 162.296 35.9348 159.588 35.6189 158.055C35.2529 156.575 34.8472 152.574 34.7257 149.231C34.4846 142.598 34.2636 142.246 31.9442 144.287Z" fill="#7C6FA9"/>
</svg>
