<svg width="25" height="25" viewBox="0 0 25 25" fill="none" xmlns="http://www.w3.org/2000/svg">
<path d="M21.2064 11.102H20.2031V10.1322C20.2031 9.87495 20.0974 9.62827 19.9093 9.44639C19.7211 9.26451 19.4659 9.16233 19.1998 9.16233C18.9338 9.16233 18.6786 9.26451 18.4904 9.44639C18.3023 9.62827 18.1966 9.87495 18.1966 10.1322V11.102H17.1933C16.9272 11.102 16.672 11.2042 16.4838 11.3861C16.2957 11.568 16.19 11.8146 16.19 12.0719C16.19 12.3291 16.2957 12.5758 16.4838 12.7576C16.672 12.9395 16.9272 13.0417 17.1933 13.0417H18.1966V14.0115C18.1966 14.2688 18.3023 14.5154 18.4904 14.6973C18.6786 14.8792 18.9338 14.9814 19.1998 14.9814C19.4659 14.9814 19.7211 14.8792 19.9093 14.6973C20.0974 14.5154 20.2031 14.2688 20.2031 14.0115V13.0417H21.2064C21.4725 13.0417 21.7277 12.9395 21.9158 12.7576C22.104 12.5758 22.2097 12.3291 22.2097 12.0719C22.2097 11.8146 22.104 11.568 21.9158 11.3861C21.7277 11.2042 21.4725 11.102 21.2064 11.102ZM13.4811 12.7701C14.0164 12.3222 14.4458 11.7682 14.7401 11.1457C15.0344 10.5232 15.1867 9.84675 15.1867 9.16233C15.1867 7.87623 14.6582 6.64282 13.7174 5.73341C12.7767 4.82401 11.5007 4.31311 10.1703 4.31311C8.83983 4.31311 7.56388 4.82401 6.62312 5.73341C5.68236 6.64282 5.15384 7.87623 5.15384 9.16233C5.15383 9.84675 5.30614 10.5232 5.60043 11.1457C5.89472 11.7682 6.3241 12.3222 6.85943 12.7701C5.45497 13.3849 4.26339 14.3777 3.42717 15.6298C2.59094 16.8819 2.14546 18.3403 2.14398 19.8306C2.14398 20.0878 2.24968 20.3345 2.43784 20.5164C2.62599 20.6983 2.88118 20.8004 3.14727 20.8004C3.41336 20.8004 3.66855 20.6983 3.8567 20.5164C4.04485 20.3345 4.15055 20.0878 4.15055 19.8306C4.15055 18.2873 4.78477 16.8072 5.91369 15.7159C7.0426 14.6246 8.57374 14.0115 10.1703 14.0115C11.7668 14.0115 13.2979 14.6246 14.4269 15.7159C15.5558 16.8072 16.19 18.2873 16.19 19.8306C16.19 20.0878 16.2957 20.3345 16.4838 20.5164C16.672 20.6983 16.9272 20.8004 17.1933 20.8004C17.4594 20.8004 17.7146 20.6983 17.9027 20.5164C18.0909 20.3345 18.1966 20.0878 18.1966 19.8306C18.1951 18.3403 17.7496 16.8819 16.9134 15.6298C16.0772 14.3777 14.8856 13.3849 13.4811 12.7701ZM10.1703 12.0719C9.57498 12.0719 8.99305 11.9012 8.49808 11.5815C8.00311 11.2618 7.61733 10.8074 7.38952 10.2758C7.16172 9.74411 7.10211 9.1591 7.21825 8.59471C7.33438 8.03031 7.62104 7.51188 8.04198 7.10498C8.46292 6.69807 8.99922 6.42097 9.58308 6.3087C10.1669 6.19644 10.7721 6.25406 11.3221 6.47427C11.8721 6.69449 12.3421 7.06741 12.6729 7.54588C13.0036 8.02435 13.1801 8.58688 13.1801 9.16233C13.1801 9.93398 12.863 10.674 12.2986 11.2197C11.7341 11.7653 10.9685 12.0719 10.1703 12.0719Z" fill="#192A51"/>
</svg>
