<svg width="21" height="20" viewBox="0 0 21 20" fill="none" xmlns="http://www.w3.org/2000/svg">
<path d="M10.7625 10.1834C11.2294 9.79847 11.6039 9.32242 11.8605 8.78754C12.1172 8.25266 12.25 7.67144 12.25 7.08335C12.25 5.97829 11.7891 4.91848 10.9686 4.13708C10.1481 3.35567 9.03532 2.91669 7.875 2.91669C6.71468 2.91669 5.60188 3.35567 4.78141 4.13708C3.96094 4.91848 3.5 5.97829 3.5 7.08335C3.49999 7.67144 3.63283 8.25266 3.88948 8.78754C4.14614 9.32242 4.52062 9.79847 4.9875 10.1834C3.76262 10.7116 2.72341 11.5646 1.99411 12.6405C1.26481 13.7163 0.876288 14.9694 0.875 16.25C0.875 16.471 0.967187 16.683 1.13128 16.8393C1.29538 16.9956 1.51794 17.0834 1.75 17.0834C1.98206 17.0834 2.20462 16.9956 2.36872 16.8393C2.53281 16.683 2.625 16.471 2.625 16.25C2.625 14.9239 3.17812 13.6522 4.16269 12.7145C5.14726 11.7768 6.48261 11.25 7.875 11.25C9.26739 11.25 10.6027 11.7768 11.5873 12.7145C12.5719 13.6522 13.125 14.9239 13.125 16.25C13.125 16.471 13.2172 16.683 13.3813 16.8393C13.5454 16.9956 13.7679 17.0834 14 17.0834C14.2321 17.0834 14.4546 16.9956 14.6187 16.8393C14.7828 16.683 14.875 16.471 14.875 16.25C14.8737 14.9694 14.4852 13.7163 13.7559 12.6405C13.0266 11.5646 11.9874 10.7116 10.7625 10.1834ZM7.875 9.58335C7.35582 9.58335 6.84831 9.43673 6.41663 9.16203C5.98495 8.88732 5.6485 8.49688 5.44982 8.04006C5.25114 7.58325 5.19915 7.08058 5.30044 6.59563C5.40172 6.11068 5.65173 5.66522 6.01884 5.31559C6.38596 4.96596 6.85369 4.72785 7.36289 4.63139C7.87209 4.53493 8.39989 4.58444 8.87954 4.77366C9.3592 4.96287 9.76917 5.28331 10.0576 5.69443C10.346 6.10555 10.5 6.5889 10.5 7.08335C10.5 7.7464 10.2234 8.38228 9.73116 8.85112C9.23887 9.31996 8.57119 9.58335 7.875 9.58335ZM16.3975 9.85002C16.9575 9.24946 17.3233 8.50757 17.4508 7.71364C17.5784 6.91971 17.4623 6.10758 17.1165 5.37502C16.7708 4.64246 16.2101 4.02068 15.5019 3.58454C14.7938 3.1484 13.9683 2.91647 13.125 2.91669C12.8929 2.91669 12.6704 3.00448 12.5063 3.16076C12.3422 3.31705 12.25 3.52901 12.25 3.75002C12.25 3.97103 12.3422 4.183 12.5063 4.33928C12.6704 4.49556 12.8929 4.58335 13.125 4.58335C13.8212 4.58335 14.4889 4.84675 14.9812 5.31559C15.4734 5.78443 15.75 6.42031 15.75 7.08335C15.7488 7.52105 15.6269 7.95077 15.3966 8.32954C15.1662 8.7083 14.8355 9.02284 14.4375 9.24169C14.3078 9.31295 14.1994 9.41474 14.1228 9.5373C14.0462 9.65987 14.0039 9.7991 14 9.94169C13.9963 10.0832 14.0306 10.2232 14.0995 10.3486C14.1683 10.474 14.2696 10.5806 14.3938 10.6584L14.735 10.875L14.8487 10.9334C15.9035 11.4098 16.7933 12.1633 17.4134 13.1053C18.0334 14.0472 18.358 15.1383 18.3487 16.25C18.3487 16.471 18.4409 16.683 18.605 16.8393C18.7691 16.9956 18.9917 17.0834 19.2237 17.0834C19.4558 17.0834 19.6784 16.9956 19.8425 16.8393C20.0066 16.683 20.0987 16.471 20.0987 16.25C20.1059 14.9712 19.7696 13.7119 19.1218 12.5917C18.474 11.4716 17.5362 10.5278 16.3975 9.85002Z" fill="#323232"/>
</svg>
