<svg width="41" height="41" viewBox="0 0 41 41" fill="none" xmlns="http://www.w3.org/2000/svg">
<g clip-path="url(#clip0_1443_236)">
<path d="M15.185 29.8876C14.924 29.8153 14.6777 29.7554 14.4413 29.6686C13.4174 29.2927 12.7106 28.594 12.3856 27.549C12.2804 27.2106 12.256 26.8448 12.217 26.4891C12.1934 26.273 12.2158 26.0522 12.2121 25.8335C12.2013 25.2058 12.2466 24.5827 12.3776 23.9684C12.4931 23.4267 12.5966 22.8806 12.7503 22.3494C13.0004 21.485 13.4282 20.7044 14.0687 20.07C14.5838 19.5597 15.2191 19.2285 15.9423 19.1032C16.4267 19.0193 16.9206 18.9001 17.3852 19.184C17.667 19.3561 17.9486 19.5296 18.2202 19.7172C18.8546 20.1556 19.5586 20.4358 20.3089 20.5686C21.1282 20.7135 21.9191 20.5574 22.6976 20.2596C23.3556 20.0079 23.9046 19.5863 24.4884 19.2202C24.844 18.9971 25.2161 18.9851 25.5923 19.03C26.0292 19.0822 26.4688 19.1667 26.86 19.3892C27.1342 19.5451 27.4164 19.697 27.6605 19.8936C28.4141 20.5006 28.8609 21.3217 29.1446 22.224C29.3398 22.8448 29.4876 23.4856 29.5929 24.1279C29.684 24.6835 29.6674 25.2558 29.7312 25.8171C29.8043 26.4607 29.7216 27.0808 29.5189 27.6875C29.3854 28.0867 29.1677 28.4363 28.8807 28.752C28.5113 29.1584 28.0801 29.4655 27.5662 29.6422C27.2749 29.7423 26.9642 29.7861 26.6562 29.8714C22.8349 29.8876 19.0196 29.8876 15.185 29.8876Z" fill="#192A51"/>
<path d="M21.5044 8.88757C21.7885 8.95281 22.0552 9.01162 22.318 9.08452C23.0327 9.28281 23.6471 9.65443 24.2022 10.1452C24.8952 10.7579 25.3982 11.4894 25.6818 12.3686C25.8968 13.0351 25.9733 13.7264 25.9048 14.4173C25.7868 15.6075 25.324 16.6472 24.4622 17.5035C24.0974 17.866 23.7048 18.1899 23.2593 18.4313C22.7978 18.6814 22.3037 18.8797 21.7717 18.9339C21.3769 18.9741 20.9788 19.0239 20.5839 19.0117C19.7233 18.985 18.9112 18.7581 18.1866 18.28C17.8822 18.0791 17.5761 17.8669 17.3182 17.6119C16.5719 16.8739 16.0252 16.0091 15.8712 14.9522C15.7985 14.4536 15.7678 13.9407 15.7927 13.438C15.8187 12.9123 15.959 12.4002 16.1756 11.9101C16.4691 11.2458 16.8845 10.6718 17.4182 10.189C18.1115 9.56177 18.904 9.11537 19.8435 8.96922C19.9353 8.95495 20.0263 8.93608 20.1234 8.90346C20.5811 8.88757 21.0331 8.88757 21.5044 8.88757Z" fill="#192A51"/>
</g>
<path d="M1.94922 20.803C1.94922 10.3096 10.4558 1.80304 20.9492 1.80304C31.4426 1.80304 39.9492 10.3096 39.9492 20.803C39.9492 31.2964 31.4426 39.803 20.9492 39.803C10.4558 39.803 1.94922 31.2964 1.94922 20.803Z" stroke="#192A51" stroke-width="2"/>
<defs>
<clipPath id="clip0_1443_236">
<rect width="21" height="21" fill="white" transform="translate(10.4492 8.84656)"/>
</clipPath>
</defs>
</svg>
