<svg width="41" height="41" viewBox="0 0 41 41" fill="none" xmlns="http://www.w3.org/2000/svg">
<rect x="1.94922" y="1.80304" width="38" height="38" rx="19" stroke="#192A51" stroke-width="2"/>
<path d="M30.4013 18.4214C31.0264 18.5338 31.4814 19.078 31.4814 19.7133V21.8934C31.4814 22.5286 31.0264 23.0729 30.4013 23.1853L29.1001 23.4194C28.9579 23.8608 28.7777 24.2843 28.569 24.6912L29.3259 25.7805C29.6886 26.302 29.6256 27.0086 29.1763 27.4579L27.6349 28.9992C27.1856 29.4485 26.4791 29.5115 25.9576 29.1489L24.8682 28.3915C24.4613 28.6002 24.0378 28.7805 23.5968 28.9227L23.3628 30.2238C23.2508 30.8481 22.7065 31.3031 22.0713 31.3031H19.8912C19.2559 31.3031 18.7117 30.8481 18.5993 30.2229L18.3652 28.9218C17.9238 28.7796 17.5003 28.5998 17.0938 28.3907L16.0044 29.148C15.4829 29.5107 14.7764 29.4477 14.3271 28.9984L12.7858 27.457C12.3364 27.0077 12.2734 26.3016 12.6361 25.7797L13.393 24.6903C13.1843 24.2834 13.0041 23.8599 12.8619 23.4185L11.5608 23.1844C10.9364 23.0724 10.4814 22.5282 10.4814 21.8929V19.7129C10.4814 19.0776 10.9364 18.5334 11.5616 18.4209L12.8628 18.1869C13.0049 17.7454 13.1852 17.3219 13.3939 16.915L12.637 15.8257C12.2743 15.3042 12.3373 14.5976 12.7866 14.1483L14.3279 12.607C14.7773 12.1577 15.4838 12.0947 16.0053 12.4574L17.0947 13.2147C17.5016 13.006 17.9251 12.8257 18.3661 12.6835L18.6001 11.3824C18.7121 10.7581 19.2564 10.3031 19.8916 10.3031H22.0717C22.7069 10.3031 23.2512 10.7581 23.3636 11.3833L23.5977 12.6844C24.0391 12.8266 24.4626 13.0064 24.8691 13.2155L25.9584 12.4582C26.4799 12.0955 27.1865 12.1585 27.6358 12.6079L29.1771 14.1492C29.6264 14.5985 29.6894 15.3046 29.3268 15.8265L28.5699 16.9159C28.7786 17.3228 28.9588 17.7463 29.101 18.1877L30.4013 18.4214ZM20.9814 24.7406C23.1558 24.7406 24.9189 22.9779 24.9189 20.8031C24.9189 18.6283 23.1558 16.8656 20.9814 16.8656C18.8071 16.8656 17.0439 18.6283 17.0439 20.8031C17.0439 22.9779 18.8071 24.7406 20.9814 24.7406Z" fill="#192A51"/>
</svg>
