<svg width="41" height="41" viewBox="0 0 41 41" fill="none" xmlns="http://www.w3.org/2000/svg">
<rect x="1.94922" y="1.80304" width="38" height="38" rx="19" stroke="#192A51" stroke-width="2"/>
<path d="M20.0476 10.303C20.6071 10.303 21.1665 10.303 21.7522 10.319C21.917 10.352 22.058 10.3589 22.1939 10.3877C23.3586 10.6343 24.403 11.1172 25.2873 11.8848C25.9288 12.4416 26.4283 13.1022 26.7967 13.858C27.2042 14.6939 27.3682 15.5744 27.3927 16.4845C27.4065 16.9966 27.3948 17.5094 27.3958 18.0218C27.3959 18.0733 27.404 18.1247 27.4086 18.178C27.8551 18.178 28.2845 18.178 28.7138 18.1781C29.0643 18.1781 29.1999 18.3063 29.1999 18.638C29.1999 22.3141 29.1992 25.9901 29.2009 29.6662C29.2011 30.0882 29.0119 30.4296 28.7365 30.7415C28.4822 31.0294 28.1325 31.166 27.7819 31.303C23.2407 31.303 18.6994 31.303 14.133 31.2879C13.9247 31.2008 13.7269 31.1512 13.5609 31.0527C13.0677 30.7599 12.7123 30.3353 12.7095 29.7776C12.691 26.0465 12.7004 22.3154 12.6984 18.5842C12.6983 18.3998 12.7796 18.2749 12.9529 18.2078C13.0148 18.1839 13.0883 18.1796 13.1565 18.1793C13.6042 18.1769 14.0518 18.178 14.5046 18.178C14.5046 17.6252 14.4822 17.0983 14.511 16.574C14.5388 16.0674 14.5889 15.5581 14.6835 15.0594C14.8302 14.285 15.1831 13.58 15.6451 12.9352C16.0275 12.4016 16.4976 11.9366 17.0453 11.5465C17.7173 11.0678 18.4461 10.7049 19.2617 10.5069C19.5247 10.443 19.7857 10.3712 20.0476 10.303ZM21.3048 12.9691C20.9793 12.9827 20.6442 12.9549 20.3307 13.0206C19.9455 13.1014 19.5651 13.2332 19.2068 13.3925C18.7652 13.5888 18.4094 13.9032 18.1038 14.2687C17.6879 14.7659 17.4049 15.3275 17.3507 15.9565C17.2917 16.6397 17.3116 17.3291 17.2982 18.0158C17.2972 18.0676 17.3054 18.1196 17.3089 18.1665C19.7466 18.1665 22.1695 18.1665 24.6427 18.1665C24.6001 17.3554 24.6085 16.5518 24.5031 15.762C24.3834 14.865 23.8487 14.1661 23.0978 13.6278C22.5801 13.2567 21.9874 13.0482 21.3048 12.9691ZM22.7546 23.5623C22.7698 23.1954 22.6834 22.8568 22.4872 22.5359C22.1003 21.9033 21.2144 21.5437 20.4688 21.7737C19.7569 21.9933 19.3327 22.4389 19.1763 23.1551C19.0526 23.721 19.3653 24.4364 19.7846 24.7431C19.8302 24.7765 19.8745 24.8488 19.8711 24.9001C19.8498 25.2213 19.8179 25.5421 19.7836 25.8624C19.7308 26.355 19.6632 26.8462 19.6219 27.3396C19.5997 27.6057 19.7866 27.7738 20.0679 27.775C20.6547 27.7774 21.2416 27.7772 21.8285 27.775C22.1106 27.774 22.2964 27.607 22.2786 27.3427C22.2478 26.8877 22.2013 26.4333 22.151 25.9797C22.1188 25.6884 22.059 25.3997 22.0298 25.1082C22.0183 24.9933 22.0105 24.8163 22.0795 24.7662C22.4901 24.4681 22.6727 24.0639 22.7546 23.5623Z" fill="#192A51"/>
<path d="M22.7546 23.5812C22.6726 24.0639 22.4901 24.4681 22.0795 24.7662C22.0104 24.8163 22.0183 24.9933 22.0298 25.1082C22.059 25.3997 22.1187 25.6884 22.151 25.9797C22.2013 26.4333 22.2478 26.8877 22.2785 27.3427C22.2964 27.607 22.1106 27.774 21.8285 27.775C21.2416 27.7772 20.6547 27.7774 20.0679 27.775C19.7866 27.7738 19.5997 27.6057 19.6219 27.3396C19.6632 26.8462 19.7308 26.355 19.7835 25.8624C19.8178 25.5421 19.8497 25.2213 19.871 24.9001C19.8744 24.8488 19.8302 24.7765 19.7846 24.7431C19.3652 24.4364 19.0526 23.721 19.1762 23.1551C19.3327 22.4389 19.7569 21.9933 20.4687 21.7737C21.2144 21.5437 22.1003 21.9033 22.4871 22.5359C22.6833 22.8568 22.7698 23.1954 22.7546 23.5812Z" fill="white"/>
</svg>
